<?xml version="1.0" encoding="UTF-8" standalone="no"?>
<!-- Generator: Adobe Illustrator 24.0.0, SVG Export Plug-In . SVG Version: 6.00 Build 0)  -->

<svg
   version="1.1"
   id="Layer_1"
   x="0px"
   y="0px"
   viewBox="0 0 481 140.6"
   style="enable-background:new 0 0 481 140.6;"
   xml:space="preserve"
   sodipodi:docname="Logo2.svg"
   inkscape:version="1.3.2 (091e20e, 2023-11-25)"
   xmlns:inkscape="http://www.inkscape.org/namespaces/inkscape"
   xmlns:sodipodi="http://sodipodi.sourceforge.net/DTD/sodipodi-0.dtd"
   xmlns="http://www.w3.org/2000/svg"
   xmlns:svg="http://www.w3.org/2000/svg"><defs
   id="defs19" /><sodipodi:namedview
   id="namedview19"
   borderopacity="0.25"
   inkscape:showpageshadow="2"
   inkscape:pageopacity="0.0"
   inkscape:pagecheckerboard="0"
   inkscape:deskcolor="#d1d1d1"
   inkscape:zoom="1.8128898"
   inkscape:cx="240.5"
   inkscape:cy="70.329702"
   inkscape:window-width="1392"
   inkscape:window-height="942"
   inkscape:window-x="0"
   inkscape:window-y="25"
   inkscape:window-maximized="0"
   inkscape:current-layer="Layer_1" />

<path
   class="st0"
   d="M295.5,101.1H119.7c-0.4,0-0.9,0-1.3,0c-1-0.1-1.4,0.3-1.7,1.2c-2.1,6.9-6.3,13.1-11.9,17.6  c-5.6,4.7-12.2,8.2-19.3,10.1c-8,2.4-16.4,3.4-24.7,2.9c-10.2-0.4-20.3-2.9-29.6-7.3c-4.9-2.2-9.4-5.3-13.3-9  c-7.7-7.4-11.8-16.4-11.8-27.2c-0.1-6.4,1.3-12.7,4-18.4c1.7-3.8,4.1-7.2,6.9-10.3c4.2-4.4,8.2-9,12.1-13.7c3.2-4,6.2-8.2,8.9-12.5  c3.2-5,6-10.3,8.4-15.8c1-2.1,2.3-4.2,3.6-6.1C52,10,55,8.2,58.3,7.8c2.2-0.3,4.5-0.3,6.7-0.2c3.9,0.3,7.4,2.5,9.4,5.9  c2.2,3.4,4.1,6.9,6.1,10.4c1.3,2.3,2.7,4.6,4,7c0.3,0.7,1.1,1.2,1.9,1.1c1,0,2,0,2.9,0h0.2c59.9,0,119.7,0,179.6,0.1  c30.7,0.1,61.3,0,92,0.1c26.4,0.1,52.8,0,79.2,0.1l31.6,0.1h1.1c0.5,0,0.8,0.3,0.7,0.8s0,0.8,0,1.3v64.4c0,0.2,0,0.4,0,0.6  c0,1.6,0,1.6-1.6,1.6H295.5z M291.8,97.2H467c0.5,0,1.1,0,1.6,0c0.9,0.1,1.2-0.4,1.1-1.2c0-0.2,0-0.5,0-0.7v-57c0-2,0-2-2-2  c-14.4-0.1-28.8,0-43.2-0.1c-37.4-0.1-74.9-0.1-112.3-0.1c-23.6,0-47.2,0-70.8-0.1c-30.8,0-61.6,0.1-92.4-0.1  c-21.4-0.1-42.8,0-64.2,0c-1.3,0.1-2.6-0.6-3.1-1.8c-3.1-5.6-6.4-11.1-9.6-16.6c-0.7-1.2-1.4-2.3-2.2-3.3c-0.9-1.2-2.2-2-3.6-2.3  c-2.6-0.5-5.3-0.6-8-0.1c-2.1,0.3-3.9,1.5-5.1,3.2c-0.8,1.1-1.5,2.3-2.2,3.6c-1.5,2.9-3,5.9-4.5,8.8c-2.4,4.8-5.1,9.4-8.2,13.8  c-3.7,5.3-7.8,10.5-12.1,15.3c-2.3,2.5-4.6,5-6.9,7.5c-4.7,5.1-7.3,11.4-8.7,18.1c-1.5,6.4-0.9,13.1,1.5,19.2  c1.7,4.5,4.4,8.6,7.8,12c4.3,4.1,9.2,7.4,14.7,9.7c10.5,4.6,22,6.7,33.5,6.1c7-0.3,13.9-1.7,20.5-4.2c6-2.2,11.4-5.6,16-10.1  c4.3-4.4,7.4-9.9,9-15.8c0.5-1.7,0.5-1.7,2.3-1.7L291.8,97.2L291.8,97.2z"
   id="path1" />
<path
   class="st0"
   d="M79.1,63.3c0,3.8,0,7.4,0,11.1c0,0.8,0.3,1,1.1,1c2,0,4,0,6,0c0.8,0,1.1,0.2,1.1,1c0,3.1,0,6.1,0,9.2  c0,0.7-0.3,1-1,0.9c-1.8,0-3.5,0-5.3,0c-1.9,0-1.9,0-1.9,1.8c0,4.8-0.1,9.6,0,14.4c0.2,1.4-0.5,2.7-1.8,3.2c-3.1,1.6-6.5,2.4-10,2.4  c-0.9,0-1.4-0.3-1.3-1.3c0-0.2,0-0.5,0-0.7c0-28.8,0-57.5,0-86.3v-0.9c0.9,0.4,1.1,1.3,1.4,2c2.1,5.1,4.6,10,7.4,14.7  c4.4,7.2,9.3,14,14.9,20.3c3.3,3.8,7,7.3,10.1,11.3c2.2,2.8,4.7,5.5,6.2,8.8c4.8,10.1,4.2,20-1.4,29.5c-3.3,5.6-8.3,9.5-14.1,12.4  c-5.5,2.7-11.4,4.4-17.4,5.2c-6.1,0.9-12.4,1.1-18.6,0.4c-7.9-0.9-15.5-3.5-22.3-7.5c-4.6-2.7-8.6-6.2-11.8-10.5  c-4.1-5.4-6.3-11.5-5.6-18.4c0.4-5.4,2.2-10.6,5-15.2c1.8-2.7,3.8-5.3,6-7.6c4.8-5.1,9.5-10.3,13.9-15.8c2.5-3.2,4.7-6.5,6.9-9.9  c3.9-6.2,7.4-12.6,10.3-19.3c0.1-0.2,0.2-0.4,0.4-0.6c0.6,0.1,0.4,0.6,0.4,0.9c0,28.9,0,57.8,0,86.7c0,1.7,0,1.8-1.7,1.7  c-3.6,0-7.2-0.9-10.3-2.7c-0.8-0.4-1.4-1.2-1.3-2.2c0-5.1-0.1-10.2-0.2-15.3c0-1.6,0-1.6-1.6-1.6c-3.9,0-7.8,0-11.7,0  c-1.7,0-1.7,0-1.7,1.8c0,8.3,3.6,14.6,10.7,18.9c6.5,3.9,13.7,5.4,21.1,5.6c5.2,0.2,10.4-0.4,15.4-1.9c8.2-2.5,14.3-7.4,17.8-15.3  c2-4.6,2.2-9.9,0.4-14.6c-1.1-3.4-2.7-6.5-4.8-9.4c-2.3-3.1-5.2-5.7-8.5-7.6C80.4,63.6,79.8,63.3,79.1,63.3z M32.7,75.4  c3.6,0,6.9,0,10.2,0c0.8,0,1-0.3,1-1.1c0-2.6,0-5.2,0-7.8c0-1-0.1-2-0.2-3.2C39,66.3,35.2,70.5,32.7,75.4z"
   id="path2" />
<path
   class="st0"
   d="m 215.9,79.2 5.8,6.5 c -3.1,0 -5.8,0 -8.4,0 -0.6,0 -1.1,-0.3 -1.4,-0.8 C 211,84 210.1,83 209.3,82 c -0.6,-0.8 -1.5,-1.2 -2.5,-1.1 -4.7,0 -9.4,-0.1 -14.1,0 -4.8,0.1 -8.8,-3.8 -8.9,-8.6 0,-0.1 0,-0.2 0,-0.3 0.1,-4.1 0.1,-8.3 0,-12.4 -0.1,-4.6 3.5,-8.5 8.1,-8.7 2.8,-0.1 5.6,-0.1 8.4,-0.1 3.5,0 7.1,-0.1 10.6,0.1 4.6,0.1 8.3,3.9 8.2,8.5 0,0.1 0,0.1 0,0.2 0,3.8 -0.1,7.5 0,11.3 0.3,3.2 -0.9,6.2 -3.2,8.3 z m -14.5,-4 c 2.2,0 4.4,0 6.6,0 3,0 4.3,-1.3 4.3,-4.2 0,-3.3 0,-6.7 0,-10 0,-3 -1.2,-4.3 -4.2,-4.3 -4.4,0 -8.9,0 -13.3,0 -2.8,0 -4.1,1.4 -4.1,4.2 0,3.4 0,6.8 0,10.2 0,2.8 1.4,4.1 4.2,4.1 2.2,0 4.3,0 6.5,0 z"
   id="path3" />
<path
   class="st0"
   d="m 408.3,51 h 10.9 c 1.6,0 1.6,0 1.6,1.6 0,0.8 0,1.6 0,2.4 0,1.6 0,1.6 -1.6,1.6 h -17.9 c -0.5,0 -1.1,0 -1.6,0 -4.1,0.3 -5.1,2.9 -5,6.2 0,0.6 0.3,0.9 0.9,0.9 h 22.9 c 0.4,0 0.9,0 1.3,0 0.7,0 1.2,0.2 1.1,1 -0.1,1.4 0.5,3.1 -0.3,4.1 -0.8,1 -2.5,0.3 -3.8,0.3 -6.8,0 -13.5,0 -20.3,0 -1.8,0 -1.8,0 -1.7,1.8 0.2,3.4 1.9,5.1 5.3,5.1 6.2,0.1 12.4,0 18.6,0 h 1.3 c 0.5,0 0.8,0.2 0.8,0.7 0,1.4 0,2.8 0,4.2 0,0.6 -0.4,0.7 -0.9,0.7 -1.2,0 -2.3,0 -3.5,0 l -19.7,-0.2 c -1,0 -2.1,-0.1 -3.1,-0.4 -2.7,-0.6 -4.8,-2.7 -5.3,-5.4 -0.3,-1.2 -0.4,-2.5 -0.4,-3.8 v -11 c 0,-1.2 0.1,-2.3 0.3,-3.5 0.6,-3.3 3.3,-5.8 6.7,-6 0.7,-0.1 1.3,-0.1 2,-0.1 3.6,0 7.1,0.1 11.4,-0.2 z"
   id="path4" />
<path
   class="st0"
   d="m 370,81.7 c -3.7,0 -7.4,0 -11.1,0 -1.5,0 -3,-0.3 -4.4,-0.9 -1.8,-0.8 -3.1,-2.4 -3.6,-4.3 -0.3,-1 -0.5,-2 -0.5,-3.1 -0.1,-4.6 -0.1,-9.1 0,-13.7 0,-0.7 0.1,-1.5 0.3,-2.2 0.7,-3.7 2.8,-5.5 6.5,-6.1 0.7,-0.1 1.5,-0.2 2.2,-0.2 L 381.3,51 h 1.3 c 0.5,0 0.6,0.3 0.7,0.7 v 4.2 c 0,0.5 -0.2,0.8 -0.8,0.8 -0.6,0 -0.9,0 -1.3,0 h -17.4 c -0.5,0 -1.1,0 -1.6,0 -3.9,0.3 -5.3,2.6 -5,6.4 0,0.4 0.3,0.7 0.7,0.8 0,0 0.1,0 0.1,0 h 24.5 c 0.5,0 0.8,0.2 0.8,0.8 0,1.3 0,2.6 0,3.8 0,0.6 -0.3,0.9 -0.9,0.9 -0.4,0 -0.9,0 -1.3,0 h -23 c -0.6,0 -0.8,0.3 -0.9,0.9 -0.4,3.8 1.6,6.1 5.5,6.1 5.4,0 10.9,0 16.3,0 1,0 2.1,0 3.1,0 1,0 1.4,0.2 1.3,1.2 -0.1,1.4 0.3,2.9 -0.2,4.3 -1.3,0.2 -2.7,0.2 -4,0.1 -3,0 -6,0 -9,0 z"
   id="path5" />
<path
   class="st0"
   d="m 264.8,81.5 c 0.2,-0.7 0.5,-1.4 1,-2 4.3,-6.5 8.5,-13.1 12.8,-19.6 1.6,-2.4 3.1,-4.8 4.7,-7.2 0.9,-1.4 2.4,-2.3 4.1,-2.4 1.9,-0.2 3.7,0.6 4.8,2.2 0.8,1.2 1.6,2.5 2.4,3.7 4,6 7.9,12 11.8,18 1.3,2 2.7,4 4,6.1 0.3,0.3 0.5,0.8 0.4,1.2 -1.5,-0.1 -2.9,-0.1 -4.4,0 -2.8,0.4 -4.6,-0.6 -5.7,-3.2 -0.6,-1.1 -1.3,-2.2 -2,-3.3 -0.3,-0.7 -1,-1.1 -1.8,-1 -6,0 -12,0 -18.1,0 -0.7,0 -1.4,0.3 -1.8,1 -1.1,1.8 -2.3,3.5 -3.3,5.3 -0.4,0.8 -1.2,1.2 -2,1.2 -2.2,-0.1 -4.5,0 -6.9,0 z m 22.8,-23.6 c -2.3,3.7 -4.4,7.3 -6.7,11 h 13.8 c -2.1,-3.9 -4.5,-7.5 -7.1,-11 z"
   id="path6" />
<path
   class="st0"
   d="m 184.8,81.5 c -2.6,0 -5,0 -7.4,0 -0.8,0 -1.1,-0.5 -1.4,-1 -1.1,-1.8 -2.3,-3.6 -3.4,-5.4 -0.4,-0.7 -1.1,-1.1 -1.9,-1 -5.8,0 -11.7,0 -17.5,0 -0.8,-0.1 -1.6,0.4 -2,1.2 -1.1,1.8 -2.4,3.5 -3.5,5.3 -0.4,0.5 -0.7,1 -1.4,1 -2.4,0 -4.9,0 -7.3,0 0.1,-0.9 0.5,-1.7 1.1,-2.3 3,-4.2 5.5,-8.6 8.4,-12.8 2.9,-4.2 5.8,-8.7 8.6,-13.1 0.7,-1.3 2,-2.3 3.5,-2.7 2.3,-0.7 4.8,0.3 6,2.4 2.6,3.8 5.1,7.7 7.6,11.6 l 9.9,15 c 0.3,0.5 0.6,1.1 0.7,1.8 z m -30,-12.6 c 5.4,0.3 12.8,0.2 13.9,-0.2 -2.3,-3.5 -4.5,-7.1 -6.9,-10.9 -2.4,3.8 -4.8,7.2 -7,11.1 z"
   id="path7" />
<path
   class="st0"
   d="m 260.3,62.5 c 0,3.2 0,6.5 0,9.7 0,1.5 -0.2,3 -0.7,4.5 -0.7,2.2 -2.6,3.8 -4.8,4.3 -0.8,0.2 -1.7,0.3 -2.5,0.4 -6,0.1 -12.1,0.3 -18.1,0 -1,0 -1.9,-0.1 -2.9,-0.4 -2.2,-0.6 -3.9,-2.2 -4.6,-4.3 -0.5,-1.4 -0.8,-2.8 -0.8,-4.3 0,-7 0,-13.9 0,-20.8 0,-1.5 0,-1.5 1.5,-1.5 1,0 2.1,0 3.1,0 2.2,0 1.9,0.1 1.9,1.8 0,6 0,12 0,18.1 -0.1,1.5 0.4,2.9 1.3,4 0.9,1.1 2.3,1.7 3.7,1.7 3.6,-0.1 7.3,0 11,0 1,0 1.9,-0.2 2.8,-0.6 1.3,-0.6 2.2,-1.8 2.4,-3.2 0.1,-0.7 0.1,-1.5 0.1,-2.2 0,-6 0,-11.9 0,-17.9 0,-1.7 0,-1.7 1.7,-1.7 1.1,0 2.2,0 3.3,0 1.5,0 1.5,0 1.5,1.5 0.1,3.6 0.1,7.3 0.1,10.9 z"
   id="path8" />
<path
   class="st0"
   d="m 333,70.1 c -3.8,0 -7.6,0 -11.3,0 -1.6,0 -1.6,0 -1.6,1.6 0,2.8 0,5.6 0,8.4 0,1.5 0,1.6 -1.5,1.6 -1.3,0 -2.6,0 -3.8,0 -1.4,0 -1.4,0 -1.5,-1.4 0,-3.1 0,-6.2 0,-9.3 0,-3.4 0,-6.8 0,-10.2 0,-1.2 0.1,-2.3 0.3,-3.5 0.7,-3.4 2.6,-5.2 6.4,-5.9 0.8,-0.1 1.6,-0.2 2.4,-0.2 L 344.3,51 c 0.3,0 0.6,0 0.9,0 0.7,0 1,0.3 1,1 0,1.1 0,2.2 0,3.3 0,1.3 0,1.4 -1.5,1.4 -5.1,0 -10.2,0 -15.4,0 -1.6,-0.1 -3.2,0 -4.8,0.1 -2.9,0.4 -4.2,1.8 -4.5,4.6 0,0.7 0,1.3 -0.1,2 -0.1,1 0.4,1.2 1.3,1.2 5.7,0 11.5,0 17.2,0 2.1,0 4.3,0 6.4,0 0.9,0 1.4,0.2 1.3,1.2 -0.2,1.4 0.6,3.1 -0.4,4 -0.8,0.8 -2.4,0.2 -3.7,0.2 -2.9,0.1 -6,0.1 -9,0.1 z"
   id="path9" />
<path
   class="st0"
   d="m 445.4,81.5 c -3.2,0 -6.5,0 -9.7,0 -0.7,0 -1.5,-0.1 -2.2,-0.2 -2.9,-0.3 -5.4,-2.4 -6,-5.3 -0.4,-1.5 -0.6,-3 -0.7,-4.5 0,-6.2 0,-12.3 0,-18.5 0,-0.4 0,-0.9 0,-1.3 0,-0.4 0.3,-0.7 0.7,-0.8 0,0 0.1,0 0.1,0 h 5.1 c 0.5,0 0.8,0.3 0.8,0.8 V 69 c 0,0.4 0,0.7 0,1.1 0,4 1.8,5.8 5.8,5.8 5.5,0 11,0 16.4,0 1.6,0 1.6,0 1.6,1.6 0,0.8 0,1.6 0,2.4 0,1.7 0,1.7 -1.7,1.7 l -10.2,-0.1 c 0.1,0.1 0.1,0.1 0,0 z"
   id="path10" />









</svg>
