<?xml version="1.0" encoding="UTF-8" standalone="no"?>
<!-- Created with Inkscape (http://www.inkscape.org/) -->

<svg
   width="111.544mm"
   height="124.1138mm"
   viewBox="0 0 111.544 124.1138"
   version="1.1"
   id="svg1"
   xmlns="http://www.w3.org/2000/svg"
   xmlns:svg="http://www.w3.org/2000/svg">
  <defs
     id="defs1" />
  <g
     id="layer1"
     transform="translate(-67.463701,-129.11665)">
    <path
       class="st0"
       d="m 143.46065,181.48886 c 0,4.48232 0,8.72871 0,13.09307 0,0.94366 0.35398,1.17954 1.29751,1.17954 2.35912,0 4.71824,0 7.07732,0 0.94366,0 1.2975,0.23584 1.2975,1.17958 0,3.65658 0,7.19525 0,10.85187 0,0.8257 -0.35398,1.17959 -1.17954,1.06162 -2.12319,0 -4.12843,0 -6.25163,0 -2.24116,0 -2.24116,0 -2.24116,2.1232 0,5.66186 -0.11814,11.32372 0,16.98558 0.23584,1.65134 -0.58977,3.18477 -2.12319,3.77454 -3.65663,1.88732 -7.6671,2.83093 -11.79553,2.83093 -1.06162,0 -1.65139,-0.35398 -1.53343,-1.53338 0,-0.23584 0,-0.58982 0,-0.8257 0,-33.97115 0,-67.82435 0,-101.7955 v -1.06162 c 1.06158,0.4718 1.29751,1.53342 1.65139,2.35912 2.47705,6.0157 5.42594,11.79552 8.72867,17.33942 5.19006,8.49279 10.96988,16.51377 17.57535,23.94494 3.89255,4.48232 8.25691,8.61075 11.91354,13.329 2.595,3.30273 5.54389,6.48751 7.3132,10.38006 5.66186,11.91349 4.95413,23.59109 -1.65135,34.79685 -3.89255,6.60547 -9.79033,11.20576 -16.63173,14.62646 -6.48755,3.18481 -13.44692,5.19005 -20.52424,6.13366 -7.19529,1.06162 -14.62646,1.29755 -21.93971,0.47185 -9.31848,-1.06162 -18.283075,-4.12843 -26.304058,-8.84667 -5.425933,-3.18478 -10.144135,-7.31321 -13.918723,-12.3853 -4.836164,-6.36959 -7.431212,-13.56488 -6.605517,-21.70382 0.471851,-6.3696 2.595049,-12.50326 5.897785,-17.9292 2.123197,-3.18481 4.48232,-6.25162 7.077324,-8.96464 5.66186,-6.0157 11.205756,-12.14937 16.395809,-18.63692 2.948892,-3.77459 5.5439,-7.66709 8.1389,-11.67761 4.60028,-7.3132 8.72872,-14.86238 12.14941,-22.7654 0.11815,-0.23583 0.23584,-0.4718 0.47181,-0.70773 0.70773,0.11814 0.47185,0.70773 0.47185,1.06162 0,34.08912 0,68.17824 0,102.26731 0,2.00528 0,2.1232 -2.00523,2.00528 -4.2464,0 -8.49279,-1.06162 -12.14942,-3.18482 -0.94365,-0.4718 -1.65139,-1.41546 -1.53342,-2.595 0,-6.01575 -0.11814,-12.03145 -0.23584,-18.0472 0,-1.88727 0,-1.88727 -1.88727,-1.88727 -4.600285,0 -9.200523,0 -13.800806,0 -2.005235,0 -2.005235,0 -2.005235,2.1232 0,9.79029 4.246395,17.2215 12.621221,22.29355 7.66714,4.60028 16.15993,6.36959 24.8886,6.60551 6.13371,0.23584 12.26737,-0.4718 18.16516,-2.24116 9.67233,-2.94889 16.86762,-8.72867 20.99605,-18.04715 2.35912,-5.42598 2.595,-11.67761 0.4718,-17.2215 -1.2975,-4.01047 -3.18477,-7.6671 -5.66186,-11.0878 -2.71296,-3.65662 -6.13366,-6.72348 -10.02621,-8.96464 -1.06158,-0.35398 -1.76931,-0.70773 -2.59501,-0.70773 z m -54.731318,14.27261 c 4.246394,0 8.138945,0 12.031448,0 0.94366,0 1.17959,-0.35398 1.17959,-1.2975 0,-3.06686 0,-6.13367 0,-9.20052 0,-1.17954 -0.11814,-2.35913 -0.23584,-3.77459 -5.543896,3.53866 -10.026216,8.49279 -12.975109,14.27261 z"
       id="path2"
       style="fill:#000080;stroke-width:1.17955" />
  </g>
</svg>
