<?xml version="1.0" encoding="UTF-8"?>
<!-- Generator: Adobe Illustrator 24.0.0, SVG Export Plug-In . SVG Version: 6.00 Build 0)  -->
<svg version="1.1" id="Layer_1" xmlns="http://www.w3.org/2000/svg" xmlns:xlink="http://www.w3.org/1999/xlink" x="0px" y="0px" viewBox="0 0 481 140.6" style="enable-background:new 0 0 481 140.6;" xml:space="preserve">
<style type="text/css">
	.st0{fill:#1B1B64;}
</style>
<path class="st0" d="M295.5,101.1H119.7c-0.4,0-0.9,0-1.3,0c-1-0.1-1.4,0.3-1.7,1.2c-2.1,6.9-6.3,13.1-11.9,17.6  c-5.6,4.7-12.2,8.2-19.3,10.1c-8,2.4-16.4,3.4-24.7,2.9c-10.2-0.4-20.3-2.9-29.6-7.3c-4.9-2.2-9.4-5.3-13.3-9  c-7.7-7.4-11.8-16.4-11.8-27.2c-0.1-6.4,1.3-12.7,4-18.4c1.7-3.8,4.1-7.2,6.9-10.3c4.2-4.4,8.2-9,12.1-13.7c3.2-4,6.2-8.2,8.9-12.5  c3.2-5,6-10.3,8.4-15.8c1-2.1,2.3-4.2,3.6-6.1C52,10,55,8.2,58.3,7.8c2.2-0.3,4.5-0.3,6.7-0.2c3.9,0.3,7.4,2.5,9.4,5.9  c2.2,3.4,4.1,6.9,6.1,10.4c1.3,2.3,2.7,4.6,4,7c0.3,0.7,1.1,1.2,1.9,1.1c1,0,2,0,2.9,0h0.2c59.9,0,119.7,0,179.6,0.1  c30.7,0.1,61.3,0,92,0.1c26.4,0.1,52.8,0,79.2,0.1l31.6,0.1h1.1c0.5,0,0.8,0.3,0.7,0.8s0,0.8,0,1.3v64.4c0,0.2,0,0.4,0,0.6  c0,1.6,0,1.6-1.6,1.6H295.5z M291.8,97.2H467c0.5,0,1.1,0,1.6,0c0.9,0.1,1.2-0.4,1.1-1.2c0-0.2,0-0.5,0-0.7v-57c0-2,0-2-2-2  c-14.4-0.1-28.8,0-43.2-0.1c-37.4-0.1-74.9-0.1-112.3-0.1c-23.6,0-47.2,0-70.8-0.1c-30.8,0-61.6,0.1-92.4-0.1  c-21.4-0.1-42.8,0-64.2,0c-1.3,0.1-2.6-0.6-3.1-1.8c-3.1-5.6-6.4-11.1-9.6-16.6c-0.7-1.2-1.4-2.3-2.2-3.3c-0.9-1.2-2.2-2-3.6-2.3  c-2.6-0.5-5.3-0.6-8-0.1c-2.1,0.3-3.9,1.5-5.1,3.2c-0.8,1.1-1.5,2.3-2.2,3.6c-1.5,2.9-3,5.9-4.5,8.8c-2.4,4.8-5.1,9.4-8.2,13.8  c-3.7,5.3-7.8,10.5-12.1,15.3c-2.3,2.5-4.6,5-6.9,7.5c-4.7,5.1-7.3,11.4-8.7,18.1c-1.5,6.4-0.9,13.1,1.5,19.2  c1.7,4.5,4.4,8.6,7.8,12c4.3,4.1,9.2,7.4,14.7,9.7c10.5,4.6,22,6.7,33.5,6.1c7-0.3,13.9-1.7,20.5-4.2c6-2.2,11.4-5.6,16-10.1  c4.3-4.4,7.4-9.9,9-15.8c0.5-1.7,0.5-1.7,2.3-1.7L291.8,97.2L291.8,97.2z"/>
<path class="st0" d="M79.1,63.3c0,3.8,0,7.4,0,11.1c0,0.8,0.3,1,1.1,1c2,0,4,0,6,0c0.8,0,1.1,0.2,1.1,1c0,3.1,0,6.1,0,9.2  c0,0.7-0.3,1-1,0.9c-1.8,0-3.5,0-5.3,0c-1.9,0-1.9,0-1.9,1.8c0,4.8-0.1,9.6,0,14.4c0.2,1.4-0.5,2.7-1.8,3.2c-3.1,1.6-6.5,2.4-10,2.4  c-0.9,0-1.4-0.3-1.3-1.3c0-0.2,0-0.5,0-0.7c0-28.8,0-57.5,0-86.3v-0.9c0.9,0.4,1.1,1.3,1.4,2c2.1,5.1,4.6,10,7.4,14.7  c4.4,7.2,9.3,14,14.9,20.3c3.3,3.8,7,7.3,10.1,11.3c2.2,2.8,4.7,5.5,6.2,8.8c4.8,10.1,4.2,20-1.4,29.5c-3.3,5.6-8.3,9.5-14.1,12.4  c-5.5,2.7-11.4,4.4-17.4,5.2c-6.1,0.9-12.4,1.1-18.6,0.4c-7.9-0.9-15.5-3.5-22.3-7.5c-4.6-2.7-8.6-6.2-11.8-10.5  c-4.1-5.4-6.3-11.5-5.6-18.4c0.4-5.4,2.2-10.6,5-15.2c1.8-2.7,3.8-5.3,6-7.6c4.8-5.1,9.5-10.3,13.9-15.8c2.5-3.2,4.7-6.5,6.9-9.9  c3.9-6.2,7.4-12.6,10.3-19.3c0.1-0.2,0.2-0.4,0.4-0.6c0.6,0.1,0.4,0.6,0.4,0.9c0,28.9,0,57.8,0,86.7c0,1.7,0,1.8-1.7,1.7  c-3.6,0-7.2-0.9-10.3-2.7c-0.8-0.4-1.4-1.2-1.3-2.2c0-5.1-0.1-10.2-0.2-15.3c0-1.6,0-1.6-1.6-1.6c-3.9,0-7.8,0-11.7,0  c-1.7,0-1.7,0-1.7,1.8c0,8.3,3.6,14.6,10.7,18.9c6.5,3.9,13.7,5.4,21.1,5.6c5.2,0.2,10.4-0.4,15.4-1.9c8.2-2.5,14.3-7.4,17.8-15.3  c2-4.6,2.2-9.9,0.4-14.6c-1.1-3.4-2.7-6.5-4.8-9.4c-2.3-3.1-5.2-5.7-8.5-7.6C80.4,63.6,79.8,63.3,79.1,63.3z M32.7,75.4  c3.6,0,6.9,0,10.2,0c0.8,0,1-0.3,1-1.1c0-2.6,0-5.2,0-7.8c0-1-0.1-2-0.2-3.2C39,66.3,35.2,70.5,32.7,75.4z"/>
<path class="st0" d="M215.9,75.2l5.8,6.5c-3.1,0-5.8,0-8.4,0c-0.6,0-1.1-0.3-1.4-0.8c-0.9-0.9-1.8-1.9-2.6-2.9  c-0.6-0.8-1.5-1.2-2.5-1.1c-4.7,0-9.4-0.1-14.1,0c-4.8,0.1-8.8-3.8-8.9-8.6c0-0.1,0-0.2,0-0.3c0.1-4.1,0.1-8.3,0-12.4  c-0.1-4.6,3.5-8.5,8.1-8.7c2.8-0.1,5.6-0.1,8.4-0.1c3.5,0,7.1-0.1,10.6,0.1c4.6,0.1,8.3,3.9,8.2,8.5c0,0.1,0,0.1,0,0.2  c0,3.8-0.1,7.5,0,11.3C219.4,70.1,218.2,73.1,215.9,75.2z M201.4,71.2c2.2,0,4.4,0,6.6,0c3,0,4.3-1.3,4.3-4.2c0-3.3,0-6.7,0-10  c0-3-1.2-4.3-4.2-4.3c-4.4,0-8.9,0-13.3,0c-2.8,0-4.1,1.4-4.1,4.2c0,3.4,0,6.8,0,10.2c0,2.8,1.4,4.1,4.2,4.1  C197.1,71.2,199.2,71.2,201.4,71.2L201.4,71.2z"/>
<path class="st0" d="M408.3,47h10.9c1.6,0,1.6,0,1.6,1.6c0,0.8,0,1.6,0,2.4c0,1.6,0,1.6-1.6,1.6h-17.9c-0.5,0-1.1,0-1.6,0  c-4.1,0.3-5.1,2.9-5,6.2c0,0.6,0.3,0.9,0.9,0.9h22.9c0.4,0,0.9,0,1.3,0c0.7,0,1.2,0.2,1.1,1c-0.1,1.4,0.5,3.1-0.3,4.1  c-0.8,1-2.5,0.3-3.8,0.3c-6.8,0-13.5,0-20.3,0c-1.8,0-1.8,0-1.7,1.8c0.2,3.4,1.9,5.1,5.3,5.1c6.2,0.1,12.4,0,18.6,0h1.3  c0.5,0,0.8,0.2,0.8,0.7c0,1.4,0,2.8,0,4.2c0,0.6-0.4,0.7-0.9,0.7c-1.2,0-2.3,0-3.5,0l-19.7-0.2c-1,0-2.1-0.1-3.1-0.4  c-2.7-0.6-4.8-2.7-5.3-5.4c-0.3-1.2-0.4-2.5-0.4-3.8V56.8c0-1.2,0.1-2.3,0.3-3.5c0.6-3.3,3.3-5.8,6.7-6c0.7-0.1,1.3-0.1,2-0.1  C400.5,47.2,404,47.3,408.3,47z"/>
<path class="st0" d="M370,77.7c-3.7,0-7.4,0-11.1,0c-1.5,0-3-0.3-4.4-0.9c-1.8-0.8-3.1-2.4-3.6-4.3c-0.3-1-0.5-2-0.5-3.1  c-0.1-4.6-0.1-9.1,0-13.7c0-0.7,0.1-1.5,0.3-2.2c0.7-3.7,2.8-5.5,6.5-6.1c0.7-0.1,1.5-0.2,2.2-0.2l21.9-0.2h1.3  c0.5,0,0.6,0.3,0.7,0.7v4.2c0,0.5-0.2,0.8-0.8,0.8s-0.9,0-1.3,0h-17.4c-0.5,0-1.1,0-1.6,0c-3.9,0.3-5.3,2.6-5,6.4  c0,0.4,0.3,0.7,0.7,0.8c0,0,0.1,0,0.1,0h24.5c0.5,0,0.8,0.2,0.8,0.8c0,1.3,0,2.6,0,3.8c0,0.6-0.3,0.9-0.9,0.9c-0.4,0-0.9,0-1.3,0  h-23c-0.6,0-0.8,0.3-0.9,0.9c-0.4,3.8,1.6,6.1,5.5,6.1c5.4,0,10.9,0,16.3,0c1,0,2.1,0,3.1,0s1.4,0.2,1.3,1.2  c-0.1,1.4,0.3,2.9-0.2,4.3c-1.3,0.2-2.7,0.2-4,0.1c-3,0-6,0-9,0L370,77.7z"/>
<path class="st0" d="M264.8,77.5c0.2-0.7,0.5-1.4,1-2c4.3-6.5,8.5-13.1,12.8-19.6c1.6-2.4,3.1-4.8,4.7-7.2c0.9-1.4,2.4-2.3,4.1-2.4  c1.9-0.2,3.7,0.6,4.8,2.2c0.8,1.2,1.6,2.5,2.4,3.7c4,6,7.9,12,11.8,18c1.3,2,2.7,4,4,6.1c0.3,0.3,0.5,0.8,0.4,1.2  c-1.5-0.1-2.9-0.1-4.4,0c-2.8,0.4-4.6-0.6-5.7-3.2c-0.6-1.1-1.3-2.2-2-3.3c-0.3-0.7-1-1.1-1.8-1c-6,0-12,0-18.1,0  c-0.7,0-1.4,0.3-1.8,1c-1.1,1.8-2.3,3.5-3.3,5.3c-0.4,0.8-1.2,1.2-2,1.2C269.5,77.4,267.2,77.5,264.8,77.5z M287.6,53.9  c-2.3,3.7-4.4,7.3-6.7,11h13.8C292.6,61,290.2,57.4,287.6,53.9z"/>
<path class="st0" d="M184.8,77.5c-2.6,0-5,0-7.4,0c-0.8,0-1.1-0.5-1.4-1c-1.1-1.8-2.3-3.6-3.4-5.4c-0.4-0.7-1.1-1.1-1.9-1  c-5.8,0-11.7,0-17.5,0c-0.8-0.1-1.6,0.4-2,1.2c-1.1,1.8-2.4,3.5-3.5,5.3c-0.4,0.5-0.7,1-1.4,1c-2.4,0-4.9,0-7.3,0  c0.1-0.9,0.5-1.7,1.1-2.3c3-4.2,5.5-8.6,8.4-12.8s5.8-8.7,8.6-13.1c0.7-1.3,2-2.3,3.5-2.7c2.3-0.7,4.8,0.3,6,2.4  c2.6,3.8,5.1,7.7,7.6,11.6l9.9,15C184.4,76.2,184.7,76.8,184.8,77.5z M154.8,64.9c5.4,0.3,12.8,0.2,13.9-0.2  c-2.3-3.5-4.5-7.1-6.9-10.9C159.4,57.6,157,61,154.8,64.9L154.8,64.9z"/>
<path class="st0" d="M260.3,58.5c0,3.2,0,6.5,0,9.7c0,1.5-0.2,3-0.7,4.5c-0.7,2.2-2.6,3.8-4.8,4.3c-0.8,0.2-1.7,0.3-2.5,0.4  c-6,0.1-12.1,0.3-18.1,0c-1,0-1.9-0.1-2.9-0.4c-2.2-0.6-3.9-2.2-4.6-4.3c-0.5-1.4-0.8-2.8-0.8-4.3c0-7,0-13.9,0-20.8  c0-1.5,0-1.5,1.5-1.5c1,0,2.1,0,3.1,0c2.2,0,1.9,0.1,1.9,1.8c0,6,0,12,0,18.1c-0.1,1.5,0.4,2.9,1.3,4c0.9,1.1,2.3,1.7,3.7,1.7  c3.6-0.1,7.3,0,11,0c1,0,1.9-0.2,2.8-0.6c1.3-0.6,2.2-1.8,2.4-3.2c0.1-0.7,0.1-1.5,0.1-2.2c0-6,0-11.9,0-17.9c0-1.7,0-1.7,1.7-1.7  c1.1,0,2.2,0,3.3,0c1.5,0,1.5,0,1.5,1.5C260.3,51.2,260.3,54.9,260.3,58.5z"/>
<path class="st0" d="M333,66.1c-3.8,0-7.6,0-11.3,0c-1.6,0-1.6,0-1.6,1.6c0,2.8,0,5.6,0,8.4c0,1.5,0,1.6-1.5,1.6c-1.3,0-2.6,0-3.8,0  c-1.4,0-1.4,0-1.5-1.4c0-3.1,0-6.2,0-9.3c0-3.4,0-6.8,0-10.2c0-1.2,0.1-2.3,0.3-3.5c0.7-3.4,2.6-5.2,6.4-5.9  c0.8-0.1,1.6-0.2,2.4-0.2l21.9-0.2c0.3,0,0.6,0,0.9,0c0.7,0,1,0.3,1,1c0,1.1,0,2.2,0,3.3c0,1.3,0,1.4-1.5,1.4c-5.1,0-10.2,0-15.4,0  c-1.6-0.1-3.2,0-4.8,0.1c-2.9,0.4-4.2,1.8-4.5,4.6c0,0.7,0,1.3-0.1,2c-0.1,1,0.4,1.2,1.3,1.2c5.7,0,11.5,0,17.2,0c2.1,0,4.3,0,6.4,0  c0.9,0,1.4,0.2,1.3,1.2c-0.2,1.4,0.6,3.1-0.4,4c-0.8,0.8-2.4,0.2-3.7,0.2C339.1,66.1,336,66.1,333,66.1z"/>
<path class="st0" d="M445.4,77.5c-3.2,0-6.5,0-9.7,0c-0.7,0-1.5-0.1-2.2-0.2c-2.9-0.3-5.4-2.4-6-5.3c-0.4-1.5-0.6-3-0.7-4.5  c0-6.2,0-12.3,0-18.5c0-0.4,0-0.9,0-1.3c0-0.4,0.3-0.7,0.7-0.8c0,0,0.1,0,0.1,0h5.1c0.5,0,0.8,0.3,0.8,0.8v17.3c0,0.4,0,0.7,0,1.1  c0,4,1.8,5.8,5.8,5.8c5.5,0,11,0,16.4,0c1.6,0,1.6,0,1.6,1.6c0,0.8,0,1.6,0,2.4c0,1.7,0,1.7-1.7,1.7l-10.2-0.1  C445.5,77.6,445.5,77.6,445.4,77.5L445.4,77.5z"/>
<path class="st0" d="M435.5,88.2c0,1.8,0,3.2,0,4.7c0,0.7-0.2,1-0.9,1s-1-0.3-1-1c0-2.5,0-5,0-7.5c0-0.4-0.2-1,0.4-1.1  s1.3-0.3,1.8,0.4s1,1.4,1.5,2.1c0.6,1,1.2,2,1.9,3c0.6-0.7,0.3-1.3,0.4-1.9c0-0.8,0-1.7,0-2.6s0.1-1.1,1-1.1s0.9,0.6,0.9,1.2  c0,2.4,0,4.7,0,7.1c0,0.4,0.2,1.1-0.4,1.2s-1.5,0.3-2-0.5s-1-1.7-1.5-2.5C436.9,89.8,436.2,88.9,435.5,88.2z"/>
<path class="st0" d="M339.1,89.1c0,4.2-3.4,5.6-6.6,4.6c-0.3-0.1-0.6-0.2-0.8-0.4c-2.1-1.3-2.7-5.3-1.1-7.5c1.8-2,4.8-2.3,6.9-0.7  C338.6,86.1,339.2,87.6,339.1,89.1z M331.8,89.1c0,0.2,0,0.5,0,0.8c0.1,1.3,1.2,2.2,2.4,2.3c1.2,0.1,2.3-0.7,2.6-1.9  c0.3-0.9,0.3-1.9-0.1-2.9c-0.3-1-1.3-1.7-2.4-1.7c-1,0-1.9,0.5-2.3,1.5C331.8,87.9,331.7,88.5,331.8,89.1L331.8,89.1z"/>
<path class="st0" d="M424.6,88.8c0,5-4,6-7.1,4.7c-0.5-0.2-0.9-0.6-1.3-1c-1.5-2.1-1.4-4.9,0.1-7c1.3-1.5,3-1.6,4.9-1.3  c1.6,0.3,2.9,1.5,3.2,3.1C424.5,87.8,424.5,88.3,424.6,88.8z M422.6,88.8c0-0.3-0.1-0.7-0.2-1c-0.6-2.1-2.6-2.6-4.2-1.2  c-0.6,0.6-0.9,1.4-0.9,2.3c-0.1,1.6,1,3.1,2.6,3.4C421.4,92.4,422.5,91,422.6,88.8L422.6,88.8z"/>
<path class="st0" d="M318,94.1c-1.5-0.1-3-0.2-3.8-1.8c-0.3-0.5-0.8-1.2-0.1-1.6c0.5-0.4,1.2-0.3,1.6,0.2c0.1,0.1,0.1,0.2,0.2,0.3  c0.2,0.4,0.6,0.8,1.1,0.9c0.6,0.3,1.2,0.3,1.8,0c0.4-0.2,0.7-0.6,0.7-1c0-0.4-0.3-0.8-0.7-0.9c-0.8-0.3-1.6-0.5-2.4-0.7  c-0.8-0.2-1.5-0.6-1.9-1.3c-0.7-1.1-0.4-2.7,0.7-3.4c0.1-0.1,0.2-0.1,0.3-0.2c1.3-0.6,2.9-0.7,4.3-0.1c0.5,0.2,0.9,0.6,1.2,1.1  c0.3,0.5,0.7,1.1,0.1,1.5c-0.5,0.4-1.2,0.4-1.7-0.1c0,0-0.1-0.1-0.1-0.1c-0.4-0.7-1.2-1.1-2-0.9c-0.5,0.1-1,0.3-1,0.9  s0.5,0.7,0.9,0.8c0.7,0.2,1.4,0.4,2.1,0.6c1.8,0.6,2.5,1.6,2.4,3.2s-1.2,2.4-3,2.7L318,94.1z"/>
<path class="st0" d="M454.7,84c1.3,0.2,2.6,0.2,3.4,1.5c0.3,0.4,0.7,1.1,0.1,1.5c-0.5,0.4-1.3,0.4-1.7-0.2c0,0,0,0,0-0.1  c-0.4-0.7-1.2-1.1-2-0.9c-0.5,0-1,0.1-1.1,0.7s0.4,0.9,0.9,1c0.8,0.3,1.6,0.4,2.5,0.7c0.8,0.2,1.5,0.8,1.9,1.6  c0.7,1.4,0,3.2-1.4,3.8c0,0,0,0,0,0c-1.4,0.6-2.9,0.6-4.3,0.1c-0.7-0.3-1.3-0.9-1.6-1.6c-0.2-0.4-0.5-0.9,0-1.3  c0.6-0.3,1.3-0.2,1.7,0.4c0.4,0.9,1.3,1.4,2.2,1.3c0.4,0,0.8-0.2,1.1-0.5c0.4-0.3,0.5-0.8,0.2-1.2c-0.1-0.1-0.2-0.2-0.4-0.3  c-0.4-0.2-0.9-0.3-1.4-0.5c-0.6-0.1-1.2-0.3-1.8-0.5c-1.1-0.4-1.9-1.5-1.7-2.7c0.1-1.2,1-2.2,2.2-2.3  C453.9,84.1,454.3,84.1,454.7,84z"/>
<path class="st0" d="M373.6,88.2c0,1,0,2.1-0.1,3.1c0,1.3-1,2.5-2.4,2.6c-0.5,0.1-1,0.2-1.5,0.2c-2.6,0-3.8-1.1-3.8-3.7  c0-1.7,0-3.4,0-5.1c0-0.7,0.3-0.9,1-0.9s1,0.2,1,1c0,1.1,0,2.2,0,3.3c0,0.5,0,1.1,0,1.6c0.1,1.5,0.8,2.2,1.9,2.2s1.7-0.8,1.7-2.4  s0-3.2,0-4.7c0-0.9,0.5-0.9,1.1-1s1.1,0.2,1.1,1S373.7,87.2,373.6,88.2L373.6,88.2z"/>
<path class="st0" d="M385.3,90c0-1,0-1.9,0-2.9c0-0.8-0.3-1.1-1.1-1c-0.4,0-0.7,0-1.1,0c-0.6,0-0.6-0.4-0.6-0.9s0.1-0.8,0.7-0.8h6.2  c0.5,0,0.8,0.2,0.8,0.8s-0.2,0.9-0.8,1s-1.5-0.3-1.9,0.3s-0.2,1.5-0.2,2.3c0,1.5,0,2.9,0,4.4c0,0.7-0.3,0.9-1,0.9s-1-0.3-1-1  C385.3,91.9,385.3,91,385.3,90z"/>
<path class="st0" d="M348.7,89c0-1.2,0-2.4,0-3.7c0-0.8,0.3-1.1,1.1-1s0.9,0.4,0.9,1.1c0,1.8,0,3.7,0,5.5c0,1.3,0,1.3,1.4,1.3  c0.9,0,1.8,0,2.8,0c0.7,0,0.8,0.4,0.8,1s-0.3,0.7-0.8,0.7c-1.7,0-3.4,0-5.1,0c-0.8,0-0.9-0.4-0.9-1C348.7,91.6,348.7,90.3,348.7,89z  "/>
<path class="st0" d="M404.2,89.2c0,1.2,0,2.4,0,3.6c0,0.8-0.4,1-1.1,1s-1-0.1-1-0.9c0-2.6,0-5.2,0-7.8c0-0.8,0.4-0.9,1-0.9  s1.2,0.1,1.1,1C404.1,86.5,404.2,87.9,404.2,89.2z"/>
</svg>